<svg id="Layer_1" enable-background="new 0 0 512.016 512.016" height="512" viewBox="0 0 512.016 512.016" width="512" xmlns="http://www.w3.org/2000/svg"><g><g><g><g><path d="m77.323 146.724.756-11.821c.632-9.885 8.298-17.877 18.153-18.927l39.592-4.217c9.617-1.024 18.626 4.857 21.553 14.069l3.694 11.626z" fill="#a087d4"/><path d="m434.716 146.724-.756-11.821c-.632-9.885-8.298-17.877-18.153-18.927l-39.592-4.217c-9.617-1.024-18.626 4.857-21.553 14.069l-3.694 11.626z" fill="#a087d4"/><path d="m433.96 134.903c-.632-9.885-8.298-17.878-18.153-18.927l-24.489-2.608c7.079 2.878 12.134 9.592 12.642 17.536l.756 11.821 30 4z" fill="#9378cf"/></g><g><path d="m355.475 371.485c11.735 0 22.274 7.184 26.569 18.111l41.695 106.083c3.058 7.78 11.913 11.533 19.635 8.322 39.514-16.434 55.975-76.35 60.03-118.973 6.497-68.296-15.893-167.162-54.103-229.889-2.871-4.714-7.693-7.901-13.159-8.688-108.509-15.624-251.737-15.624-360.246 0-5.465.787-10.287 3.974-13.159 8.688-38.21 62.727-60.6 161.593-54.103 229.889 4.055 42.622 20.516 102.539 60.03 118.973 7.722 3.212 16.577-.542 19.635-8.322l41.695-106.083c4.295-10.927 14.834-18.111 26.569-18.111" fill="#e4e4f5"/><g><g><path d="m449.302 155.14c-2.871-4.714-7.693-7.901-13.159-8.688-8.844-1.273-17.922-2.441-27.189-3.506 4.409 1.281 8.223 4.149 10.643 8.122 38.21 62.727 60.305 165.664 53.808 233.96-3.642 38.285-17.298 90.516-48.676 112.662 3.687 6.383 11.627 9.23 18.645 6.311 39.514-16.433 55.976-76.35 60.03-118.973 6.498-68.295-15.893-167.161-54.102-229.888z" fill="#dadaf5"/></g></g><g><path d="m343.329 259.181h-175.618c-87.861 75.022-108.702 239.553-108.739 240.069 3.136 1.75 6.387 3.347 9.765 4.752 7.724 3.212 16.578-.545 19.64-8.333l41.69-106.072c4.295-10.927 14.834-18.111 26.569-18.111h198.769c11.735 0 22.274 7.184 26.569 18.111l41.691 106.072c3.061 7.789 11.916 11.546 19.639 8.333 3.378-1.405 6.629-3.002 9.765-4.752-.038-.516-13.448-179.307-109.74-240.069z" fill="#a087d4"/></g><g><ellipse cx="194.519" cy="316.934" fill="#6947b5" rx="26.374" ry="26.388"/><path d="m194.519 290.546c-5.574 0-10.741 1.735-15 4.688 6.871 4.763 11.374 12.704 11.374 21.7 0 8.997-4.503 16.937-11.374 21.701 4.259 2.953 9.426 4.688 15 4.688 14.566 0 26.374-11.814 26.374-26.388 0-14.575-11.808-26.389-26.374-26.389z" fill="#603ab5"/><ellipse cx="317.663" cy="318.006" fill="#6947b5" rx="26.374" ry="26.388"/><path d="m317.663 291.618c-5.574 0-10.741 1.735-15 4.688 6.87 4.763 11.374 12.704 11.374 21.7 0 8.997-4.503 16.938-11.374 21.701 4.259 2.953 9.426 4.688 15 4.688 14.566 0 26.374-11.814 26.374-26.388 0-14.575-11.808-26.389-26.374-26.389z" fill="#603ab5"/></g></g><g fill="#a087d4"><g><ellipse cx="395.825" cy="181.239" rx="12.231" ry="12.238"/><ellipse cx="395.825" cy="246.584" rx="12.231" ry="12.238"/></g><g><ellipse cx="428.479" cy="213.911" rx="12.231" ry="12.238"/><ellipse cx="363.17" cy="213.911" rx="12.231" ry="12.238"/></g></g></g></g><g><path d="m455.707 151.238c-3.221-5.287-8.146-9.176-13.898-11.108.472-15.223-9.114-29.898-25.208-31.611l-39.592-4.217c-16.084-1.714-28.329 10.907-31.519 25.703-59.475-3.897-119.441-3.618-178.924-.028-3.169-14.853-15.28-27.402-31.536-25.675l-39.591 4.217c-16.033 1.707-25.456 16.445-25.209 31.611-5.753 1.933-10.677 5.822-13.897 11.108-6.86 11.263-13.372 23.909-19.353 37.588-3.885 8.885 9.859 14.895 13.743 6.01 5.712-13.063 11.91-25.106 18.42-35.794 1.714-2.814 4.565-4.697 7.822-5.166 26.359-3.795 54.954-6.651 84.676-8.578 43.126 55.663 21.396 88.451.954 108.395-55.459 43.274-97.474 155.081-108.956 231.124-25.37-25.203-34.272-66.181-37.538-100.498-4.201-44.161 3.921-102.403 21.728-155.797 3.068-9.199-11.162-13.945-14.229-4.745-28.616 86.514-43.641 222.767 29.557 280.187 13.861 10.141 35.962 10.317 42.199-5.552 0 0 41.69-106.072 41.69-106.072 3.189-8.112 10.878-13.354 19.589-13.354h198.769c8.711 0 16.399 5.242 19.588 13.354l41.69 106.072c6.245 15.885 28.567 15.998 42.197 5.552 35.64-27.312 47.706-73.168 51.99-118.224 6.754-70.977-16.962-171.791-55.162-234.502zm-80.286-32.021 39.592 4.217c7.327.78 11.203 7.602 11.603 14.136-20.839-2.748-42.912-4.942-65.724-6.584 1.567-6.765 6.854-12.585 14.529-11.769zm-278.393 4.217 39.592-4.217c7.674-.813 12.96 5.004 14.528 11.769-22.811 1.642-44.884 3.836-65.723 6.584.399-6.535 4.275-13.356 11.603-14.136zm82.461 20.832c49.86-2.575 102.203-2.591 152.095-.049-16.802 24.155-24.119 47.064-21.748 68.245 1.542 13.779 7.043 26.719 16.701 39.22h-142.035c26.11-34.57 21.023-69.179-5.013-107.416zm316.449 240.053c-3.248 34.148-12.054 74.563-36.931 99.893-2.374-18.965-7.969-54.303-19.954-92.542-2.901-9.253-17.214-4.767-14.312 4.486 13.889 44.316 18.963 84.922 20.383 98.68-4.613 2.501-11.733 5.081-14.479-1.912l-41.69-106.072c-5.461-13.891-18.629-22.867-33.549-22.867h-198.771c-14.92 0-28.089 8.976-33.549 22.867l-41.69 106.073c-2.697 6.862-9.652 4.495-14.24 2.039 9.311-62.149 41.229-174.618 103.355-228.283h170.615c28.186 18.449 51.787 49.656 70.177 92.801 3.802 8.921 17.601 3.039 13.799-5.882-19.844-46.558-45.767-80.291-77.051-100.295-20.332-19.989-41.519-52.728 1.397-108.073 30.064 1.927 58.985 4.807 85.625 8.643 3.258.469 6.109 2.352 7.823 5.166 36.722 60.283 59.525 157.132 53.042 225.278z"/><path d="m194.519 283.046c-18.678 0-33.874 15.203-33.874 33.889 1.861 44.957 65.893 44.944 67.747 0 0-18.687-15.195-33.889-33.873-33.889zm0 52.776c-10.407 0-18.874-8.473-18.874-18.888 1.037-25.058 36.714-25.051 37.747 0 0 10.415-8.466 18.888-18.873 18.888z"/><path d="m317.663 284.118c-18.678 0-33.874 15.202-33.874 33.888 1.861 44.957 65.893 44.945 67.747 0 0-18.686-15.195-33.888-33.873-33.888zm0 52.776c-10.407 0-18.874-8.473-18.874-18.888 1.037-25.057 36.714-25.051 37.747 0 0 10.415-8.466 18.888-18.873 18.888z"/><path d="m267.589 326.703h-23.138c-9.697 0-9.697 15 0 15h23.138c9.697 0 9.697-15 0-15z"/><path d="m114.158 165.156c-4.142 0-7.5 3.358-7.5 7.5v33.755h-33.778c-9.697 0-9.697 15 0 15h33.778v33.755c0 9.697 15 9.697 15 0v-33.755h33.779c9.697 0 9.697-15 0-15h-33.779v-33.755c0-4.142-3.358-7.5-7.5-7.5z"/><path d="m395.824 200.977c10.88 0 19.731-8.854 19.731-19.738-1.084-26.186-38.383-26.178-39.463 0 .001 10.884 8.853 19.738 19.732 19.738zm0-24.476c6.253.199 6.251 9.279 0 9.477-6.252-.199-6.251-9.28 0-9.477z"/><path d="m395.824 226.845c-10.88 0-19.731 8.854-19.731 19.738 1.084 26.186 38.383 26.178 39.463 0 0-10.883-8.852-19.738-19.732-19.738zm0 24.477c-6.253-.199-6.251-9.279 0-9.477 6.253.199 6.252 9.279 0 9.477z"/><path d="m428.479 194.173c-10.88 0-19.731 8.854-19.731 19.738 1.084 26.186 38.383 26.178 39.463 0-.001-10.883-8.852-19.738-19.732-19.738zm0 24.477c-6.253-.199-6.251-9.279 0-9.477 6.253.199 6.251 9.279 0 9.477z"/><path d="m382.902 213.911c0-10.884-8.852-19.738-19.731-19.738-26.176 1.084-26.169 38.396 0 39.477 10.879 0 19.731-8.855 19.731-19.739zm-19.732 4.739c-6.253-.199-6.251-9.279 0-9.477 6.253.199 6.252 9.279 0 9.477z"/><path d="m238.76 86.018c-2.929 2.929-2.929 7.678 0 10.606 2.929 2.929 7.678 2.929 10.606 0 3.508-3.655 9.799-3.655 13.306 0 2.929 2.929 7.678 2.929 10.606 0 2.93-2.929 2.93-7.678.001-10.607-9.091-9.473-25.426-9.473-34.519.001z"/><path d="m297.842 68.969c2.929-2.929 2.929-7.678 0-10.606-22.034-22.961-61.61-22.96-83.644 0-2.929 2.929-2.929 7.678 0 10.606 2.929 2.929 7.678 2.929 10.606 0 16.45-17.141 45.98-17.142 62.43 0 2.929 2.929 7.677 2.929 10.608 0z"/><path d="m198.324 39.571c30.406-31.682 84.987-31.681 115.392 0 2.93 2.929 7.677 2.929 10.607 0 2.929-2.929 2.929-7.678 0-10.606-35.989-37.501-100.619-37.501-136.606 0-2.929 2.929-2.929 7.678 0 10.606 2.929 2.929 7.678 2.929 10.607 0z"/></g></g></svg>