<?xml version="1.0" encoding="iso-8859-1"?>
<!-- Generator: Adobe Illustrator 19.0.0, SVG Export Plug-In . SVG Version: 6.00 Build 0)  -->
<svg version="1.1" id="Capa_1" xmlns="http://www.w3.org/2000/svg" xmlns:xlink="http://www.w3.org/1999/xlink" x="0px" y="0px"
	 viewBox="0 0 512 512" style="enable-background:new 0 0 512 512;" xml:space="preserve">
<path style="fill:#319CD6;" d="M482,384.129H30c-16.569,0-30-13.431-30-30V65.855c0-16.569,13.431-30,30-30h452
	c16.569,0,30,13.431,30,30v288.274C512,370.698,498.569,384.129,482,384.129z"/>
<path style="fill:#55D8EF;" d="M256,35.855H30c-16.569,0-30,13.431-30,30v288.274c0,16.569,13.431,30,30,30h226V35.855z"/>
<rect x="211.49" y="372" style="fill:#B1B4BF;" width="89.01" height="79.16"/>
<g>
	<rect x="211.49" y="372" style="fill:#D2D6E3;" width="44.506" height="79.16"/>
	<path style="fill:#D2D6E3;" d="M0,300.851v53.278c0,16.569,13.431,30,30,30h452c16.569,0,30-13.431,30-30v-53.278H0z"/>
</g>
<path style="fill:#F2F4F9;" d="M256,300.851H0v53.278c0,16.569,13.431,30,30,30h226V300.851z"/>
<path style="fill:#D2D6E3;" d="M338.093,446.145H173.907c-8.284,0-15,6.716-15,15s6.716,15,15,15h164.187c8.284,0,15-6.716,15-15
	S346.377,446.145,338.093,446.145z"/>
<path style="fill:#F2F4F9;" d="M256,446.145h-82.093c-8.284,0-15,6.716-15,15s6.716,15,15,15H256V446.145z"/>
<path style="fill:#3A458F;" d="M173.804,236.782c-2.913,0-5.856-0.847-8.444-2.613l-55.007-37.553
	c-4.949-3.379-7.903-8.974-7.903-14.965c0.001-5.992,2.956-11.585,7.904-14.963l55.006-37.553c6.842-4.67,16.175-2.911,20.846,3.931
	c4.671,6.842,2.911,16.175-3.931,20.846l-40.634,27.741l40.634,27.741c6.842,4.671,8.602,14.004,3.931,20.846
	C183.301,234.492,178.594,236.782,173.804,236.782z"/>
<g>
	<path style="fill:#3A2370;" d="M338.196,236.782c-4.791,0-9.497-2.289-12.402-6.544c-4.671-6.842-2.911-16.175,3.931-20.846
		l40.634-27.741l-40.634-27.741c-6.842-4.671-8.602-14.004-3.931-20.846c4.671-6.841,14.004-8.601,20.846-3.931l55.007,37.554
		c4.947,3.376,7.902,8.97,7.903,14.962c0,5.992-2.954,11.586-7.902,14.965l-55.008,37.554
		C344.053,235.935,341.109,236.781,338.196,236.782z M384.734,191.466h0.01H384.734z"/>
	<path style="fill:#3A2370;" d="M225.877,250.216c-2.49,0-5.012-0.62-7.336-1.927c-7.222-4.06-9.785-13.205-5.726-20.426
		l60.218-107.123c4.06-7.222,13.206-9.784,20.426-5.726c7.222,4.06,9.785,13.205,5.726,20.426l-60.218,107.123
		C236.214,247.46,231.122,250.216,225.877,250.216z"/>
</g>
<path style="fill:#3A458F;" d="M225.877,250.216c-2.49,0-5.012-0.62-7.336-1.927c-7.222-4.06-9.785-13.205-5.726-20.426L256,151.041
	v61.221l-17.033,30.301C236.214,247.46,231.122,250.216,225.877,250.216z"/>
<g>
</g>
<g>
</g>
<g>
</g>
<g>
</g>
<g>
</g>
<g>
</g>
<g>
</g>
<g>
</g>
<g>
</g>
<g>
</g>
<g>
</g>
<g>
</g>
<g>
</g>
<g>
</g>
<g>
</g>
</svg>
